<svg width="375" height="667" viewBox="0 0 375 667" fill="none" xmlns="http://www.w3.org/2000/svg">
<path d="M13.6016 410.198L37.3059 440.152L82.2372 404.595L58.5329 374.641L56.8256 399.305L36.0672 392.419L37.9973 414.205L13.6016 410.198Z" fill="black" stroke="black" stroke-width="2"/>
<path d="M11.2124 410.696L34.9167 440.651L79.8481 405.094L56.1437 375.14L54.4365 399.803L33.6781 392.918L35.6081 414.703L11.2124 410.696Z" fill="white" stroke="black" stroke-width="2"/>
<path d="M302.614 413.323L354.331 387.902L333.173 445.154L302.614 413.323Z" fill="white" stroke="black" stroke-width="2"/>
<path d="M351.2 397.234L350.089 389.785L348.388 390.189L346.198 396.099L348.048 404.817L351.2 397.234Z" fill="black"/>
<path d="M346.409 410.464L344.297 401.194L343.598 403.42L341.408 409.329L343.258 418.048L346.409 410.464Z" fill="black"/>
<path d="M341.068 423.957L338.955 414.687L338.256 416.912L336.066 422.822L337.916 431.54L341.068 423.957Z" fill="black"/>
<path d="M336.445 436.972L334.333 427.703L333.634 429.928L331.443 435.837L333.294 444.556L336.445 436.972Z" fill="black"/>
<path d="M298.163 411.925L349.88 386.505L328.722 443.757L298.163 411.925Z" fill="#FFE560" stroke="black" stroke-width="2"/>
<path d="M69.3573 566.258L93.4469 553.429L96.1697 560.204L77.0542 570.09L81.5594 591.257L58.047 603.225L55.542 596.992L74.7665 587.377L69.3573 566.258Z" fill="black" stroke="black" stroke-width="2"/>
<path d="M67.0047 565.001L91.0944 552.171L93.8172 558.946L74.7016 568.832L79.2068 589.999L55.6945 601.967L53.1895 595.734L72.414 586.119L67.0047 565.001Z" fill="#F36FA8" stroke="black" stroke-width="2"/>
<path d="M84.4246 573.108L108.514 560.279L111.237 567.054L92.1215 576.94L96.6268 598.107L73.1144 610.075L70.6094 603.842L89.8339 594.227L84.4246 573.108Z" fill="black" stroke="black" stroke-width="2"/>
<path d="M82.0716 571.851L106.161 559.021L108.884 565.796L89.7685 575.682L94.2737 596.849L70.7614 608.817L68.2564 602.584L87.4809 592.969L82.0716 571.851Z" fill="white" stroke="black" stroke-width="2"/>
<path d="M334.544 615.63C361.608 599.355 354.285 571.069 346.826 559.852L334.245 567.418C339.349 573.77 344.09 594.472 327.735 604.307C311.381 614.142 294.877 600.941 291.77 592.96L279.189 600.525C285.18 612.625 310.641 630.004 334.544 615.63Z" fill="black" stroke="black" stroke-width="2"/>
<path d="M336.057 618.146C363.121 601.871 355.798 573.585 348.339 562.368L335.758 569.934C340.863 576.286 345.604 596.989 329.249 606.823C312.894 616.658 296.39 603.457 293.283 595.476L280.702 603.041C286.693 615.141 312.154 632.52 336.057 618.146Z" fill="#FFE560" stroke="black" stroke-width="2"/>
<path d="M246.858 505.94L276.574 484.636L281 492.585L256.342 509.12L267.406 534.558L239.271 553L234.529 545.687L256.342 531.06L246.858 505.94Z" fill="black" stroke="black" stroke-width="2"/>
<path d="M244.329 505.304L274.045 484L278.471 491.949L253.813 508.484L264.877 533.922L236.742 552.364L232 545.051L253.813 530.424L244.329 505.304Z" fill="#76C9D2" stroke="black" stroke-width="2"/>
<path d="M84.5806 59.6804C84.5806 70.9039 75.4951 80 64.2903 80C53.0856 80 44 70.9039 44 59.6804C44 48.4569 53.0856 39.3608 64.2903 39.3608C75.4951 39.3608 84.5806 48.4569 84.5806 59.6804Z" fill="black" stroke="black" stroke-width="2"/>
<path d="M87.0001 55.3196C87.0001 66.5431 77.9145 75.6392 66.7098 75.6392C55.505 75.6392 46.4194 66.5431 46.4194 55.3196C46.4194 44.0961 55.505 35 66.7098 35C77.9145 35 87.0001 44.0961 87.0001 55.3196Z" fill="#FFE560" stroke="black" stroke-width="2"/>
<path d="M132.231 474.245L124.407 467.334C131.529 459.22 148.903 443.654 161.421 446.299C173.94 448.943 173.258 459.22 171.352 464.028L162.926 490.773C167.239 487.568 177.25 482.299 182.787 486.866C189.708 492.576 183.088 499.788 184.592 499.487C185.796 499.247 186.699 501.591 187 502.793L177.069 507C171.954 505.197 174.963 495.581 174.963 495.581C164.852 505.918 155.904 503.294 152.694 500.689C143.065 489.27 167.44 460.422 161.421 457.718C153.898 454.337 137.447 467.734 132.231 474.245Z" fill="black" stroke="black" stroke-width="2"/>
<path d="M129.824 474.245L122 467.334C129.122 459.22 146.495 443.654 159.014 446.299C171.532 448.943 170.85 459.22 168.944 464.028L160.519 490.773C164.832 487.568 174.843 482.299 180.38 486.866C187.301 492.576 180.681 499.788 182.185 499.487C183.389 499.247 184.292 501.591 184.593 502.793L174.662 507C169.546 505.197 172.556 495.581 172.556 495.581C162.444 505.918 153.497 503.294 150.287 500.689C140.657 489.27 165.032 460.422 159.014 457.718C151.491 454.337 135.04 467.734 129.824 474.245Z" fill="white" stroke="black" stroke-width="2"/>
<path d="M38.6167 161.789L51.0466 166L55.2989 155.958H72.9625L82.4485 142.352L97.8223 143.648L106 126.479L94.2242 120.648L89.9718 129.07H75.5793L66.4204 143.648L46.4672 142.352L38.6167 161.789Z" fill="black" stroke="black" stroke-width="2"/>
<path d="M36 161.141L48.4299 165.352L52.6822 155.31H70.3458L79.8318 141.704L95.2056 143L103.383 125.831L91.6075 120L87.3551 128.423H72.9626L63.8037 143L43.8505 141.704L36 161.141Z" fill="#F36FA8" stroke="black" stroke-width="2"/>
<path d="M327.09 102.156L353.492 123.529L347.205 129.815L326.587 112.717L304.963 127.804L279.818 106.682L285.601 100.899L305.968 118.249L327.09 102.156Z" fill="black" stroke="black" stroke-width="2"/>
<path d="M327.341 98.8873L353.743 120.26L347.457 126.546L326.838 109.448L305.214 124.535L280.07 103.413L285.853 97.6301L306.22 114.98L327.341 98.8873Z" fill="#76C9D2" stroke="black" stroke-width="2"/>
<path d="M326.838 122.523L353.24 143.896L346.954 150.182L326.335 133.084L304.711 148.171L279.567 127.049L285.35 121.266L305.717 138.616L326.838 122.523Z" fill="black" stroke="black" stroke-width="2"/>
<path d="M327.09 119.254L353.492 140.627L347.205 146.913L326.587 129.815L304.963 144.902L279.818 123.78L285.601 117.997L305.968 135.347L327.09 119.254Z" fill="white" stroke="black" stroke-width="2"/>
<path d="M254.372 51.5898L230.864 39.5968L207.108 58.2879L218.391 64.0446L199.695 79.7869L208.157 84.1044L194.284 106.652L237.901 83.8735L227.871 78.7565L245.097 69.769L235.067 64.6519L254.372 51.5898Z" fill="black" stroke="black" stroke-width="2"/>
<path d="M253.45 48.7497L229.943 36.7567L206.186 55.4478L217.47 61.2045L198.773 76.9468L207.236 81.2643L193.362 103.812L236.98 81.0334L226.95 75.9164L244.176 66.9289L234.146 61.8118L253.45 48.7497Z" fill="#FFE560" stroke="black" stroke-width="2"/>
</svg>
