<svg width="1440" height="954" viewBox="0 0 1440 954" fill="none" xmlns="http://www.w3.org/2000/svg">
<circle cx="1312" cy="171" r="43" fill="black" stroke="black" stroke-width="2"/>
<circle cx="1317" cy="162" r="43" fill="#FFE560" stroke="black" stroke-width="2"/>
<path d="M154.248 71.2168L126.539 96.4842L139.516 137.43L152.817 125.302L164.403 158.043L174.378 148.947L197.429 178.678L188.949 109.271L177.126 120.052L173.788 92.6453L161.966 103.426L154.248 71.2168Z" fill="black" stroke="black" stroke-width="2"/>
<path d="M150.01 71.0214L122.3 96.2889L135.278 137.235L148.579 125.107L160.165 157.848L170.14 148.752L193.191 178.483L184.71 109.076L172.888 119.856L169.55 92.4499L157.727 103.231L150.01 71.0214Z" fill="#FFE560" stroke="black" stroke-width="2"/>
<path d="M1267.5 473.5L1315 468.5V481L1277.5 484.5L1271 521L1225 525V513.5L1262.5 510.5L1267.5 473.5Z" fill="black" stroke="black" stroke-width="2"/>
<path d="M1264.5 470L1312 465V477.5L1274.5 481L1268 517.5L1222 521.5V510L1259.5 507L1264.5 470Z" fill="#F36FA8" stroke="black" stroke-width="2"/>
<path d="M1287.5 494L1335 489V501.5L1297.5 505L1291 541.5L1245 545.5V534L1282.5 531L1287.5 494Z" fill="black" stroke="black" stroke-width="2"/>
<path d="M1284.5 490.5L1332 485.5V498L1294.5 501.5L1288 538L1242 542V530.5L1279.5 527.5L1284.5 490.5Z" fill="white" stroke="black" stroke-width="2"/>
<path d="M930 162.997L917 151.497C928.833 137.997 957.7 112.097 978.5 116.497C999.3 120.897 998.167 137.997 995 145.997L981 190.497C988.167 185.164 1004.8 176.397 1014 183.997C1025.5 193.497 1014.5 205.497 1017 204.997C1019 204.597 1020.5 208.497 1021 210.497L1004.5 217.497C996 214.497 1001 198.497 1001 198.497C984.2 215.697 969.333 211.33 964 206.997C948 187.997 988.5 139.997 978.5 135.497C966 129.872 938.667 152.164 930 162.997Z" fill="black" stroke="black" stroke-width="2"/>
<path d="M926 162.997L913 151.497C924.833 137.997 953.7 112.097 974.5 116.497C995.3 120.897 994.167 137.997 991 145.997L977 190.497C984.167 185.164 1000.8 176.397 1010 183.997C1021.5 193.497 1010.5 205.497 1013 204.997C1015 204.597 1016.5 208.497 1017 210.497L1000.5 217.497C992 214.497 997 198.497 997 198.497C980.2 215.697 965.333 211.33 960 206.997C944 187.997 984.5 139.997 974.5 135.497C962 129.872 934.667 152.164 926 162.997Z" fill="white" stroke="black" stroke-width="2"/>
<path d="M360.378 723.726L403.817 778.618L486.154 713.46L442.715 658.568L439.587 703.765L401.547 691.147L405.083 731.069L360.378 723.726Z" fill="black" stroke="black" stroke-width="2"/>
<path d="M356 724.64L399.439 779.532L481.776 714.374L438.337 659.482L435.209 704.679L397.169 692.061L400.706 731.983L356 724.64Z" fill="white" stroke="black" stroke-width="2"/>
<path d="M109 645.5L128 652L134.5 636.5H161.5L176 615.5L199.5 617.5L212 591L194 582L187.5 595H165.5L151.5 617.5L121 615.5L109 645.5Z" fill="black" stroke="black" stroke-width="2"/>
<path d="M105 644.5L124 651L130.5 635.5H157.5L172 614.5L195.5 616.5L208 590L190 581L183.5 594H161.5L147.5 616.5L117 614.5L105 644.5Z" fill="#F36FA8" stroke="black" stroke-width="2"/>
<path d="M257.5 318.5L305 313.5V326L267.5 329.5L261 366L215 370V358.5L252.5 355.5L257.5 318.5Z" fill="black" stroke="black" stroke-width="2"/>
<path d="M254.5 315L302 310V322.5L264.5 326L258 362.5L212 366.5V355L249.5 352L254.5 315Z" fill="#76C9D2" stroke="black" stroke-width="2"/>
<path d="M277.5 339L325 334V346.5L287.5 350L281 386.5L235 390.5V379L272.5 376L277.5 339Z" fill="black" stroke="black" stroke-width="2"/>
<path d="M274.5 335.5L322 330.5V343L284.5 346.5L278 383L232 387V375.5L269.5 372.5L274.5 335.5Z" fill="white" stroke="black" stroke-width="2"/>
<path d="M917.23 710.797L1011.96 664.237L973.203 769.101L917.23 710.797Z" fill="white" stroke="black" stroke-width="2"/>
<path d="M1006.22 681.328L1004.19 667.686L1001.07 668.425L997.06 679.249L1000.45 695.218L1006.22 681.328Z" fill="black"/>
<path d="M997.447 705.561L993.578 688.583L992.298 692.659L988.286 703.482L991.675 719.452L997.447 705.561Z" fill="black"/>
<path d="M987.663 730.275L983.793 713.297L982.514 717.372L978.502 728.196L981.891 744.165L987.663 730.275Z" fill="black"/>
<path d="M979.196 754.115L975.327 737.136L974.047 741.212L970.035 752.035L973.424 768.005L979.196 754.115Z" fill="black"/>
<path d="M909.078 708.238L1003.8 661.677L965.051 766.541L909.078 708.238Z" fill="#FFE560" stroke="black" stroke-width="2"/>
<path d="M521.644 165.395L509.078 73.9042L597.853 112.971L521.644 165.395Z" fill="white" stroke="black" stroke-width="2"/>
<path d="M520.539 79.9784C519.278 82.262 517.065 87.1022 518.301 88.1937" stroke="black" stroke-width="2" stroke-linecap="round" stroke-linejoin="round"/>
<path d="M514.024 175.492L501.459 84.0008L590.234 123.067L514.024 175.492Z" fill="#F36FA8" stroke="black" stroke-width="2"/>
<path d="M523.527 85.2051C525.536 86.6553 529.199 89.9213 527.778 91.3843M510.211 75.5521C510.984 77.8523 514.38 81.7878 515.698 80.881" stroke="black" stroke-width="2" stroke-linecap="round" stroke-linejoin="round"/>
<path d="M535.605 86.0002C534.241 87.5457 531.934 91.0742 533.624 92.8249" stroke="black" stroke-width="2" stroke-linecap="round" stroke-linejoin="round"/>
<path d="M536.484 98.7469C537.952 97.9396 541.392 96.7061 543.411 98.23" stroke="black" stroke-width="2" stroke-linecap="round" stroke-linejoin="round"/>
<path d="M554.998 93.9007C552.75 95.0429 547.969 96.9155 546.835 95.2677" stroke="black" stroke-width="2" stroke-linecap="round" stroke-linejoin="round"/>
<path d="M561.232 102.963C561.036 105.324 562.1 111.106 565.664 112.052" stroke="black" stroke-width="2" stroke-linecap="round" stroke-linejoin="round"/>
<path d="M557.934 95.5222C556.261 98.0892 553.527 103.408 555.979 104.149" stroke="black" stroke-width="2" stroke-linecap="round" stroke-linejoin="round"/>
<path d="M569.14 112.695C570.814 110.128 574.721 105.458 576.967 107.311" stroke="black" stroke-width="2" stroke-linecap="round" stroke-linejoin="round"/>
<path d="M537.744 89.9911C539.186 90.6173 542.297 92.1994 543.204 93.5176M545.705 103.328C546.605 101.697 548.824 98.5118 550.493 98.8204" stroke="black" stroke-width="2" stroke-linecap="round" stroke-linejoin="round"/>
<path d="M569.807 101.313C568.709 102.069 566.738 103.91 567.645 105.228" stroke="black" stroke-width="2" stroke-linecap="round" stroke-linejoin="round"/>
<path d="M577.715 111.045C580.008 112.907 584.073 117.11 581.992 119.027" stroke="black" stroke-width="2" stroke-linecap="round" stroke-linejoin="round"/>
<path d="M704.5 780.5L751.5 747L758.5 759.5L719.5 785.5L737 825.5L692.5 854.5L685 843L719.5 820L704.5 780.5Z" fill="black" stroke="black" stroke-width="2"/>
<path d="M700.5 779.5L747.5 746L754.5 758.5L715.5 784.5L733 824.5L688.5 853.5L681 842L715.5 819L700.5 779.5Z" fill="#76C9D2" stroke="black" stroke-width="2"/>
<path d="M1281.49 813.012C1318.36 790.84 1308.38 752.304 1298.22 737.022L1281.08 747.328C1288.04 755.982 1294.5 784.187 1272.21 797.586C1249.93 810.985 1227.45 793 1223.22 782.127L1206.08 792.433C1214.24 808.918 1248.93 832.595 1281.49 813.012Z" fill="black" stroke="black" stroke-width="2"/>
<path d="M1283.55 816.44C1320.42 794.268 1310.45 755.732 1300.28 740.45L1283.14 750.756C1290.1 759.41 1296.56 787.615 1274.28 801.014C1251.99 814.413 1229.51 796.428 1225.28 785.555L1208.14 795.861C1216.3 812.346 1250.99 836.023 1283.55 816.44Z" fill="#FFE560" stroke="black" stroke-width="2"/>
<circle cx="186" cy="793" r="43" fill="black" stroke="black" stroke-width="2"/>
<circle cx="191" cy="784" r="43" fill="white" stroke="black" stroke-width="2"/>
<path d="M681.762 259.766L684.766 246.595L696.411 244.22L702.327 230.176L717.996 228.054L721.66 216.229L736.887 213.21L743.04 197.378L756.016 196.579L759.215 187.21L771.48 191.772L765.98 210.068L752.123 209.073L745.521 225.124L730.073 227.695L724.165 240.621L710.512 242.311L705.494 255.915L681.762 259.766Z" fill="black" stroke="black" stroke-width="2" stroke-linecap="round" stroke-linejoin="round"/>
<path d="M681.322 258.869L678.727 246.775L690.372 244.4L696.288 230.355L711.957 228.234L715.621 216.409L730.849 213.39L737.002 197.558L749.977 196.758L753.176 187.39L765.441 191.952L759.941 210.248L746.084 209.252L739.483 225.304L724.035 227.875L718.126 240.801L704.474 242.49L699.455 256.094L681.322 258.869Z" fill="#FFE560" stroke="black" stroke-width="2" stroke-linecap="round" stroke-linejoin="round"/>
</svg>
