<svg width="109" height="91" viewBox="0 0 109 91" fill="none" xmlns="http://www.w3.org/2000/svg">
<path d="M14 85.5L55.5 3L106.5 85.5H14Z" fill="white" stroke="black" stroke-width="2"/>
<path d="M61.5002 14.5C59.1669 15.6667 54.6002 18.4 55.0002 20" stroke="black" stroke-width="2" stroke-linecap="round" stroke-linejoin="round"/>
<path d="M2 89.5L43.5 7L94.5 89.5H2Z" fill="#76C9D2" stroke="black" stroke-width="2"/>
<path d="M61 20.5C61.8334 22.8333 63 27.6 61 28M55.4999 5C54.8332 7.33333 55.4 12.5 57 12.5" stroke="black" stroke-width="2" stroke-linecap="round" stroke-linejoin="round"/>
<path d="M70.5002 28C68.5002 28.5 64.6002 30.1 65.0002 32.5" stroke="black" stroke-width="2" stroke-linecap="round" stroke-linejoin="round"/>
<path d="M64 39C65.6667 39.1667 69.2 40.1 70 42.5" stroke="black" stroke-width="2" stroke-linecap="round" stroke-linejoin="round"/>
<path d="M82 45.5C79.5 45.1667 74.5 44 74.5 42" stroke="black" stroke-width="2" stroke-linecap="round" stroke-linejoin="round"/>
<path d="M82.0001 56.5C80.5001 58.3333 78.1001 63.7 80.5001 66.5" stroke="black" stroke-width="2" stroke-linecap="round" stroke-linejoin="round"/>
<path d="M83.5 48.5C80.6667 49.6667 75.4 52.5 77 54.5" stroke="black" stroke-width="2" stroke-linecap="round" stroke-linejoin="round"/>
<path d="M83 69C85.8333 67.8333 91.7 66.2 92.5 69" stroke="black" stroke-width="2" stroke-linecap="round" stroke-linejoin="round"/>
<path d="M70 32.5C70.8333 33.8333 72.5 36.9 72.5 38.5M69 48C70.6667 47.1667 74.3 45.8 75.5 47" stroke="black" stroke-width="2" stroke-linecap="round" stroke-linejoin="round"/>
<path d="M90 60C88.6667 60 86 60.4 86 62" stroke="black" stroke-width="2" stroke-linecap="round" stroke-linejoin="round"/>
<path d="M91 72.5C91.8333 75.3333 92.8 81.1 90 81.5" stroke="black" stroke-width="2" stroke-linecap="round" stroke-linejoin="round"/>
</svg>
