<svg width="115" height="84" viewBox="0 0 115 84" fill="none" xmlns="http://www.w3.org/2000/svg">
<path d="M46.5 10.5L94 5.5V18L56.5 21.5L50 58L4 62V50.5L41.5 47.5L46.5 10.5Z" fill="black" stroke="black" stroke-width="2"/>
<path d="M43.5 7L91 2V14.5L53.5 18L47 54.5L1 58.5V47L38.5 44L43.5 7Z" fill="#F36FA8" stroke="black" stroke-width="2"/>
<path d="M66.5 31L114 26V38.5L76.5 42L70 78.5L24 82.5V71L61.5 68L66.5 31Z" fill="black" stroke="black" stroke-width="2"/>
<path d="M63.5 27.5L111 22.5V35L73.5 38.5L67 75L21 79V67.5L58.5 64.5L63.5 27.5Z" fill="white" stroke="black" stroke-width="2"/>
</svg>
