<svg width="112" height="104" viewBox="0 0 112 104" fill="none" xmlns="http://www.w3.org/2000/svg">
<path d="M19 47.9969L6 36.4969C17.8333 22.9969 46.7 -2.90305 67.5 1.49695C88.3 5.89695 87.1667 22.997 84 30.997L70 75.497C77.1667 70.1636 93.8 61.397 103 68.997C114.5 78.497 103.5 90.497 106 89.997C108 89.597 109.5 93.497 110 95.497L93.5 102.497C85 99.497 90 83.497 90 83.497C73.2 100.697 58.3333 96.3303 53 91.9969C37 72.9969 77.5 24.997 67.5 20.4969C55 14.8719 27.6667 37.1636 19 47.9969Z" fill="black" stroke="black" stroke-width="2"/>
<path d="M15 47.9969L2 36.4969C13.8333 22.9969 42.7 -2.90305 63.5 1.49695C84.3 5.89695 83.1667 22.997 80 30.997L66 75.497C73.1667 70.1636 89.8 61.397 99 68.997C110.5 78.497 99.5 90.497 102 89.997C104 89.597 105.5 93.497 106 95.497L89.5 102.497C81 99.497 86 83.497 86 83.497C69.2 100.697 54.3333 96.3303 49 91.9969C33 72.9969 73.5 24.997 63.5 20.4969C51 14.8719 23.6667 37.1636 15 47.9969Z" fill="white" stroke="black" stroke-width="2"/>
</svg>
