<svg width="92" height="114" viewBox="0 0 92 114" fill="none" xmlns="http://www.w3.org/2000/svg">
<path d="M10 98L56 3L90 109.5L10 98Z" fill="white" stroke="black" stroke-width="2"/>
<path d="M62 20L52 10.5L50 13L53.5 24L66 34.5L62 20Z" fill="black"/>
<path d="M70 44.5L56.5 33.5L58 37.5L61.5 48.5L74 59L70 44.5Z" fill="black"/>
<path d="M77.5 70L64 59L65.5 63L69 74L81.5 84.5L77.5 70Z" fill="black"/>
<path d="M85.5 94L72 83L73.5 87L77 98L89.5 108.5L85.5 94Z" fill="black"/>
<path d="M2 101L48 6L82 112.5L2 101Z" fill="#FFE560" stroke="black" stroke-width="2"/>
</svg>
