<svg width="132" height="140" viewBox="0 0 132 140" fill="none" xmlns="http://www.w3.org/2000/svg">
<path d="M117.347 53.0286L29.8524 112.069L53.9473 2.90097L117.347 53.0286Z" fill="white" stroke="black" stroke-width="2"/>
<path d="M33.2031 94.3555L37.0782 107.593L40.0634 106.436L42.5622 95.1663L37.0276 79.8083L33.2031 94.3555Z" fill="black"/>
<path d="M38.5921 69.1521L44.7402 85.4448L45.4524 81.2325L47.9512 69.9628L42.4166 54.6048L38.5921 69.1521Z" fill="black"/>
<path d="M44.9153 43.3352L51.0635 59.6278L51.7756 55.4156L54.2744 44.1459L48.7398 28.7879L44.9153 43.3352Z" fill="black"/>
<path d="M50.0525 18.5641L56.2007 34.8567L56.9128 30.6445L59.4116 19.3748L53.8771 4.01681L50.0525 18.5641Z" fill="black"/>
<path d="M125.771 54.4529L38.2767 113.493L62.3716 4.32526L125.771 54.4529Z" fill="#76C9D2" stroke="black" stroke-width="2"/>
</svg>
