<?xml version="1.0" standalone="no"?>
<!DOCTYPE svg PUBLIC "-//W3C//DTD SVG 20010904//EN"
 "http://www.w3.org/TR/2001/REC-SVG-20010904/DTD/svg10.dtd">
<svg version="1.0" xmlns="http://www.w3.org/2000/svg"
 width="271.000000pt" height="271.000000pt" viewBox="0 0 271.000000 271.000000"
 preserveAspectRatio="xMidYMid meet">
<metadata>
Created by potrace 1.14, written by Peter Selinger 2001-2017
</metadata>
<g transform="translate(0.000000,271.000000) scale(0.100000,-0.100000)"
fill="#000000" stroke="none">
<path d="M1591 2597 c-34 -57 -72 -114 -85 -126 l-23 -22 -33 86 c-18 47 -36
85 -39 85 -9 -1 -1404 -2321 -1398 -2326 6 -7 2428 -286 2434 -281 2 3 -4 23
-13 46 -9 23 -14 44 -11 47 3 3 63 -1 134 -9 70 -9 130 -14 132 -12 4 4 -22
71 -306 785 -124 311 -243 616 -264 679 -21 63 -45 121 -52 130 -7 9 -57 129
-110 266 -54 138 -107 273 -118 300 -12 28 -57 140 -101 250 -43 110 -81 201
-82 203 -2 1 -31 -44 -65 -101z m126 -105 c34 -86 66 -166 69 -176 5 -12 -42
18 -114 74 -68 51 -121 96 -120 100 10 23 94 160 98 160 3 0 33 -71 67 -158z
m199 -1187 c273 -687 498 -1255 500 -1260 4 -10 -2362 257 -2370 267 -7 8
1358 2258 1365 2251 4 -4 231 -570 505 -1258z m-133 725 l161 -109 42 -106
c23 -58 40 -105 37 -105 -3 0 -79 47 -168 105 l-162 106 -36 92 c-50 127 -50
127 -42 127 4 0 79 -49 168 -110z m445 -825 c28 -71 51 -130 49 -131 -2 -2
-77 45 -168 104 l-164 108 -47 119 c-26 66 -50 129 -54 139 -5 12 57 -25 162
-96 l169 -116 53 -127z m59 -414 l142 -95 40 -98 c22 -54 37 -98 34 -98 -3 0
-79 48 -168 106 -158 102 -163 107 -183 157 -11 29 -30 76 -41 106 l-22 54 28
-18 c15 -10 92 -61 170 -114z m363 -668 c12 -11 10 -13 -13 -13 -61 0 -223 23
-233 34 -7 6 -26 49 -44 96 -18 47 -35 91 -38 99 -5 12 292 -183 328 -216z"/>
</g>
</svg>
